<svg xmlns="http://www.w3.org/2000/svg" viewBox="0 0 512 512"><title>Instagram</title><path d="M65.72,0H446.28C482.42,0,512,26.76,512,65.71V446.29c0,39-29.57,65.71-65.71,65.71H65.72C29.57,512,0,485.24,0,446.29V65.71C0,26.76,29.57,0,65.72,0ZM373,56.89a23.11,23.11,0,0,0-23,23.05v55.17a23.11,23.11,0,0,0,23,23.05h57.87a23.12,23.12,0,0,0,23.05-23.05V79.94a23.11,23.11,0,0,0-23.05-23.05Zm81.16,159.64H409.07a149.75,149.75,0,0,1,6.57,43.92c0,85.16-71.26,154.2-159.15,154.2s-159.14-69-159.14-154.2a149.5,149.5,0,0,1,6.57-43.92h-47V432.8a20.42,20.42,0,0,0,20.35,20.35H433.79a20.41,20.41,0,0,0,20.35-20.35V216.52ZM256.48,155.25c-56.79,0-102.83,44.61-102.83,99.63s46,99.63,102.83,99.63,102.84-44.61,102.84-99.63S313.28,155.25,256.48,155.25Z" style="fill:#000"/></svg>