<svg xmlns="http://www.w3.org/2000/svg" viewBox="0 0 21.22 21.22"><title>LinkedIn</title><path d="M19.3,0H1.92A1.92,1.92,0,0,0,0,1.92V19.3a1.92,1.92,0,0,0,1.92,1.92H19.3a1.92,1.92,0,0,0,1.92-1.92V1.92A1.92,1.92,0,0,0,19.3,0ZM6.57,18.32a0.56,0.56,0,0,1-.56.56H3.63a0.56,0.56,0,0,1-.56-0.56v-10A0.56,0.56,0,0,1,3.63,7.8H6a0.56,0.56,0,0,1,.56.56v10ZM4.82,6.86A2.26,2.26,0,1,1,7.08,4.6,2.26,2.26,0,0,1,4.82,6.86ZM19,18.37a0.51,0.51,0,0,1-.51.51H15.93a0.51,0.51,0,0,1-.51-0.51V13.69c0-.7.2-3.06-1.82-3.06-1.57,0-1.89,1.61-2,2.34v5.39a0.51,0.51,0,0,1-.51.51H8.65a0.51,0.51,0,0,1-.51-0.51V8.31A0.51,0.51,0,0,1,8.65,7.8h2.47a0.51,0.51,0,0,1,.51.51V9.18a3.5,3.5,0,0,1,3.29-1.55C19,7.63,19,11.44,19,13.54v4.82h0Z" style="fill:#000"/></svg>