<svg xmlns="http://www.w3.org/2000/svg" viewBox="0 0 512 512"><title>Spotify</title><g id="719b49c8-0437-4418-b154-7110309eacc4" data-name="Layer 1"><path d="M256,0C114.62,0,0,114.61,0,256S114.62,512,256,512,512,397.38,512,256,397.38,0,256,0Zm98.53,377.58c-4.14,0-7-1.43-10.84-3.79-37.1-22.45-83.37-34.25-132.46-34.25-27.4,0-55,3.52-80.75,8.88-4.19.91-9.46,2.52-12.62,2.52a16,16,0,0,1-16.19-16.09c0-10.74,6.19-16.11,13.92-17.59,31.62-7.21,63.11-11.33,95.81-11.33,56,0,105.94,12.86,148.9,38.61,6.39,3.73,10.13,7.54,10.13,17A16,16,0,0,1,354.53,377.59Zm27.89-67.76c-5.55,0-9-2.25-12.83-4.44C328,280.68,270.23,264.26,207,264.26A323.79,323.79,0,0,0,123.48,275c-5,1.38-7.79,2.86-12.46,2.86a20.06,20.06,0,0,1-20-20.07c0-10.88,5.28-18.37,15.92-21.37,28.78-7.91,58.17-14,100.94-14,67,0,131.84,16.69,182.8,47.19,8.55,4.89,11.69,11.12,11.69,20.23A19.91,19.91,0,0,1,382.42,309.83ZM414.18,231c-5.2,0-8.3-1.27-13.18-3.95C354.67,199.3,282.75,184,213.21,184c-34.72,0-70,3.53-102.26,12.29-3.72.93-8.41,2.79-13.12,2.79-13.66,0-24.14-10.81-24.14-24.46,0-13.92,8.62-21.72,17.91-24.47,36.5-10.75,77.23-15.75,121.51-15.75,75.17,0,154.26,15.46,212,49.38,7.79,4.42,13.18,11.07,13.18,23.25A23.88,23.88,0,0,1,414.18,231Z" style="fill:#000"/></g></svg>