<svg xmlns="http://www.w3.org/2000/svg" viewBox="0 0 23.22 23.22"><title>Compartir vía Twitter</title><path d="M11.61,0A11.61,11.61,0,1,0,23.22,11.61,11.61,11.61,0,0,0,11.61,0Zm6,8.51v.4A8.86,8.86,0,0,1,4,16.38a6.61,6.61,0,0,0,.74,0,6.25,6.25,0,0,0,3.87-1.33,3.12,3.12,0,0,1-2.91-2.16,3,3,0,0,0,.59.06,3.15,3.15,0,0,0,.82-.11,3.12,3.12,0,0,1-2.5-3.05v0A3.12,3.12,0,0,0,6,10.17,3.12,3.12,0,0,1,5.08,6,8.84,8.84,0,0,0,11.5,9.27,3.12,3.12,0,0,1,16.8,6.43a6.28,6.28,0,0,0,2-.76,3.13,3.13,0,0,1-1.37,1.72A6.22,6.22,0,0,0,19.2,6.9,6.22,6.22,0,0,1,17.64,8.51Z" style="fill:#55acee"/></svg>