<svg xmlns="http://www.w3.org/2000/svg" viewBox="0 0 20 20"><title>Twitter</title><path d="M10,0A10,10,0,1,0,20,10,10,10,0,0,0,10,0Zm5.2,7.33v.35A7.63,7.63,0,0,1,3.46,14.1a4.49,4.49,0,0,0,.64,0A5.35,5.35,0,0,0,7.43,13a2.67,2.67,0,0,1-2.5-1.86,2.73,2.73,0,0,0,.5,0,2.76,2.76,0,0,0,.71-.09A2.68,2.68,0,0,1,4,8.46v0a2.61,2.61,0,0,0,1.21.34,2.69,2.69,0,0,1-.83-3.58A7.63,7.63,0,0,0,9.9,8a3,3,0,0,1-.07-.61,2.68,2.68,0,0,1,2.68-2.68,2.64,2.64,0,0,1,2,.85,5.38,5.38,0,0,0,1.71-.66A2.7,2.7,0,0,1,15,6.37,5.66,5.66,0,0,0,16.54,6,5.49,5.49,0,0,1,15.2,7.33Z" style="fill:#000"/></svg>