<svg xmlns="http://www.w3.org/2000/svg" viewBox="0 0 23.05 23.05"><title>Compartir vía WhatsApp</title><path d="M11.53,0h0A11.52,11.52,0,0,0,2.19,18.28L.76,22.56l4.43-1.42A11.52,11.52,0,1,0,11.53,0Zm6.71,16.27A3.25,3.25,0,0,1,16,17.9c-.6.13-1.39.23-4-.87A14.44,14.44,0,0,1,6.2,12,6.58,6.58,0,0,1,4.83,8.49,3.68,3.68,0,0,1,6,5.68a1.67,1.67,0,0,1,1.18-.41h.39c.34,0,.51,0,.73.57s1,2.32,1,2.49a.69.69,0,0,1,0,.62A2,2,0,0,1,9,9.5c-.17.2-.33.35-.5.56s-.33.38-.14.72a10.23,10.23,0,0,0,1.87,2.32A8.47,8.47,0,0,0,13,14.76a.73.73,0,0,0,.81-.13,13.94,13.94,0,0,0,.9-1.19.64.64,0,0,1,.83-.25c.31.11,2,.92,2.3,1.09s.56.25.64.39A2.87,2.87,0,0,1,18.23,16.27Z" style="fill:#4caf50"/></svg>