<svg xmlns="http://www.w3.org/2000/svg" viewBox="0 0 512 512"><title>Youtube</title><path d="M503.15,135c-6.27-27.23-28.54-47.32-55.35-50.31C384.31,77.57,320,77.53,256.08,77.57s-128.25,0-191.74,7.09C37.55,87.65,15.29,107.74,9,135,.1,173.75,0,216.08,0,256s0,82.25,8.92,121c6.26,27.22,28.52,47.31,55.33,50.31,63.49,7.09,127.75,7.13,191.73,7.09s128.24,0,191.72-7.09c26.8-3,49.07-23.09,55.34-50.31,8.93-38.78,9-81.1,9-121S512.07,173.75,503.15,135ZM189.93,335.47V166.15L352.7,251.07Z" style="fill:#000"/></svg>