<svg id="Capa_1" data-name="Capa 1" xmlns="http://www.w3.org/2000/svg" viewBox="0 0 171 62"><defs><style>.cls-1{fill:none;stroke:#c0b283;stroke-miterlimit:10;stroke-width:1.5px;}.cls-2{fill:#c0b283;}</style></defs><title>logo</title><path class="cls-1" d="M65.3,121.27C111.17,60.7,150.46,68.4,178.37,87.72c21,14.51,39.64,38.43,61.19,35.1C258,120,273.48,98,277.45,63.54c2.46-21.34-1.44-30.7.79-42.1C282.58-.75,306.16-10.38,392.3,48"/><path class="cls-2" d="M78.64,8.85l-2,7.23-1,0,.13-.52A4.61,4.61,0,0,0,76,14.48q0-1.34-2.14-.89-2.82.6-5.36,4A25.15,25.15,0,0,0,64.51,26q-.8,2.88-2,9.63A70.61,70.61,0,0,0,61.33,44q0,1.32,1.19,1.08a7.84,7.84,0,0,0,2.4-1.22l.47.7c-.76.47-2.08,1.26-4,2.36q-2.17,1.27-3.82,2.34a65.11,65.11,0,0,1,1.1-8.83q1.1-6.51,2.55-12.77l-.93,1.35q-1.14,1.68-3.51,5.09c-2.25,3.24-3.38,4.86-5.63,8.08s-3.44,4.88-5.74,8.11l-.57.82-.65-.35a8.53,8.53,0,0,0,.9-3.64,41.39,41.39,0,0,0-1.34-8.58L43,35.22a4.47,4.47,0,0,1-.13-.55A62.51,62.51,0,0,1,30.09,49.2q-6.59,5.24-12.84,5.73a15.73,15.73,0,0,1-7.74-1.31,13.65,13.65,0,0,1-5.75-4.67,13.82,13.82,0,0,1-2.4-8.1A12.84,12.84,0,0,1,5.54,31a17.34,17.34,0,0,1,10.89-4.31,16.75,16.75,0,0,1,7,.84,39.42,39.42,0,0,1,8.16,4.64,4.67,4.67,0,0,0,2.82,1.19,10.33,10.33,0,0,0,3.62-1.93l.52.7C36,33.92,34.65,34.83,32,36.62l-.67-.53a39,39,0,0,0-9.25-5.71,18.64,18.64,0,0,0-8.35-1.69A11.57,11.57,0,0,0,6,31.9,10.37,10.37,0,0,0,3,39.57a11.71,11.71,0,0,0,4.41,9.56c2.94,2.38,6.76,3.43,11.46,3a22.72,22.72,0,0,0,12.21-5.33A53.84,53.84,0,0,0,42.6,33.4a26.43,26.43,0,0,1-.49-4.59,24.55,24.55,0,0,1,2-9.54q2-4.87,4.16-5.25T50.4,17.2a15.76,15.76,0,0,1-1.24,5.51A67.72,67.72,0,0,1,45.05,31q.28,1.32,1.14,4.51a62.34,62.34,0,0,1,1.89,9.54l.83-1.21,1.71-2.4c4.83-6.86,7.24-10.33,12.07-17.29Q67,18,68.86,15.66a25,25,0,0,1,4.07-4A14.34,14.34,0,0,1,78.64,8.85ZM44.87,29.45a36.73,36.73,0,0,0,2.49-5.91,16.73,16.73,0,0,0,.94-4.85q0-2-1.37-1.75-1,.18-1.76,2.49a18,18,0,0,0-.72,5.38A30.4,30.4,0,0,0,44.87,29.45Z"/><path class="cls-2" d="M83.06,32.32a2.51,2.51,0,0,1,.36,1.21Q83.42,36,80,40q-5,5.8-8.53,6.54-3,.64-3-2.8a19.71,19.71,0,0,1,2.36-8.64,29.81,29.81,0,0,1,6.06-8.31q4.49-4.32,8-5.07,2-.43,2,1.07a5.36,5.36,0,0,1-1,2.57,15.36,15.36,0,0,1-2.45,3A21.06,21.06,0,0,1,80,31a11.61,11.61,0,0,1-3.24,1.55,1.34,1.34,0,0,1-1.68-1,13.06,13.06,0,0,0,1.73-.21,10.34,10.34,0,0,0,4.77-2.5q2.18-2,2.18-3.68,0-1.24-1.6-.9-2.87.61-5.86,4.77a28.2,28.2,0,0,0-3.49,6.53,17.88,17.88,0,0,0-1.37,6.18q0,2.66,2.22,2.19,2.43-.52,5.05-3.75A28.07,28.07,0,0,0,83.06,32.32Z"/><path class="cls-2" d="M99.49,18.93l-.28.55-1.27,2.37q-.67,1.27-1.42,2.56l-.28.47-.65-.31.18-.45a5.21,5.21,0,0,0,.54-1.69q0-1-1.73-.63a4.84,4.84,0,0,0-2.76,1.75,4.59,4.59,0,0,0-1.19,3,4.2,4.2,0,0,0,.52,1.86l1.24,2.4A6.11,6.11,0,0,1,93,33.6q0,3.13-3.44,6.63-3,3-5.27,3.52a3.06,3.06,0,0,1-2.17-.2,1.61,1.61,0,0,1-.85-1.51,5.63,5.63,0,0,1,.62-2.48,3.64,3.64,0,0,0,4,1.89,6.18,6.18,0,0,0,3.33-2,4.9,4.9,0,0,0,1.45-3.3,4.49,4.49,0,0,0-.52-2l-1.52-3a4.64,4.64,0,0,1-.44-2.08q0-2.14,2.38-5.31a13.46,13.46,0,0,1,3.19-3.13,12.73,12.73,0,0,1,5.75-1.75Z"/><path class="cls-2" d="M110.32,16.78l-.34.84-3.64.67-.21.48q-.49,1.13-2.66,6.55c-.59,1.47-1.41,3.52-2.48,6.12-1.25,3-1.89,4.93-1.89,5.67s.38,1,1.14.88A9.63,9.63,0,0,0,104,35.66l.41.59A20.8,20.8,0,0,1,100.86,39a10.91,10.91,0,0,1-3.28,1.48q-1.94.39-1.94-1.13,0-1.09,2.17-6.54l2.69-6.66q2.25-5.64,2.61-6.61l.26-.64-3.38.66.36-.85.34-.07a5.51,5.51,0,0,0,3-1.28A16.73,16.73,0,0,0,105.74,13l.52-.07a11.31,11.31,0,0,0,2.45-.77q-.28.8-1,2.64l-.78,2-.26.64Z"/><path class="cls-2" d="M116.93,15v.28c0,1.62-1.07,5-3.2,10.15l-1.91,4.67a24,24,0,0,0-1.58,4.55c0,.53.28.73.88.59a7.08,7.08,0,0,0,1.71-.84l.34.69c-2.7,1.76-4.87,3.08-6.49,3.94a19.48,19.48,0,0,1,.79-4.63c.44-1.45,1.4-3.9,2.85-7.33,1.86-4.39,2.8-6.94,2.84-7.63,0-.54-.19-.77-.67-.68a3.36,3.36,0,0,0-.88.34l-1.09.58L110,20l-.26-.78.54-.28q2.87-1.58,5.84-3.39Zm1.5-6.86c.79-.13,1.19.21,1.19,1a2,2,0,0,1-.53,1.3,2,2,0,0,1-1.2.74c-.81.13-1.21-.2-1.21-1a2,2,0,0,1,.53-1.3A2,2,0,0,1,118.43,8.19Z"/><path class="cls-2" d="M130.24,23.76A2.69,2.69,0,0,1,130.6,25c0,1.65-1.15,3.69-3.44,6.15-3.34,3.6-6.18,5.61-8.53,6-2,.32-3-.65-3-2.94A19,19,0,0,1,118,25.68a26.87,26.87,0,0,1,6.06-8q4.49-4,8-4.41c1.36-.16,2,.27,2,1.27a4.87,4.87,0,0,1-1,2.47,13.54,13.54,0,0,1-2.45,2.78,19.36,19.36,0,0,1-3.48,2.31,11,11,0,0,1-3.24,1.3,1.44,1.44,0,0,1-1.68-1.1,13.4,13.4,0,0,0,1.73-.1,9.68,9.68,0,0,0,4.77-2.14c1.46-1.18,2.18-2.34,2.18-3.49,0-.83-.53-1.18-1.6-1q-2.87.36-5.86,4.31A25.86,25.86,0,0,0,120,26.21a17.3,17.3,0,0,0-1.37,6.11c0,1.77.74,2.54,2.22,2.31s3.3-1.39,5.05-3.41A25.52,25.52,0,0,0,130.24,23.76Z"/><path class="cls-2" d="M149,12.22l-.93,2.65a8.1,8.1,0,0,0-1.73-.11q-3,.17-6.41,5.06a28.83,28.83,0,0,0-2.75,5Q136,27.54,134.34,33l-.28.91a29.27,29.27,0,0,0-3.2,1.25l.28-.81,2.27-6.31c2.15-6.06,3.23-9.59,3.23-10.62q0-.8-.7-.73a6,6,0,0,0-1.73.88l-.34-.76a50.65,50.65,0,0,0,6.48-4.53,3.85,3.85,0,0,1,.1.84,23.36,23.36,0,0,1-1.78,6.8l.62-.78c4-4.76,6.86-7.13,8.53-7.21A2.5,2.5,0,0,1,149,12.22Z"/><path class="cls-2" d="M155,11.32v.28c0,1.62-1.07,4.83-3.2,9.68l-1.91,4.41A21.22,21.22,0,0,0,148.27,30c0,.52.28.77.88.71a6.22,6.22,0,0,0,1.71-.61l.34.74c-2.7,1.38-4.87,2.43-6.49,3.09a18.3,18.3,0,0,1,.79-4.53,74.56,74.56,0,0,1,2.85-7c1.86-4.14,2.8-6.56,2.84-7.25,0-.53-.19-.8-.67-.78a3,3,0,0,0-.88.22l-1.09.44-.49.2-.26-.81.54-.21q2.87-1.2,5.84-2.57Zm1.5-6.63a1,1,0,0,1,1.19,1.18,1.7,1.7,0,0,1-.53,1.21,1.66,1.66,0,0,1-1.2.55,1,1,0,0,1-1.21-1.17,1.72,1.72,0,0,1,.53-1.22A1.67,1.67,0,0,1,156.46,4.69Z"/><path class="cls-1" d="M32.17,63.42c32.7-16.76,56.18-19.3,72-18.24,7.89.53,15.2,2.06,25.87,0,18.89-3.67,32.81-15.6,41.79-25.42"/></svg>